<svg viewBox="0 0 600 360" xmlns="http://www.w3.org/2000/svg">
  <rect width="100%" height="100%" rx="16" ry="16" fill="#121b1c" stroke="#0e2f34" />
  <g font-family="Inter" font-size="12" fill="#d9feff" stroke="#00bcd4" stroke-width="1.2">
    <rect x="32" y="40"  width="120" height="48" rx="8" fill="#0b2225"/><text x="70" y="70">GitHub</text>
    <rect x="190" y="40" width="120" height="48" rx="8" fill="#0b2225"/><text x="215" y="70">CI (GHA)</text>
    <rect x="350" y="40" width="120" height="48" rx="8" fill="#0b2225"/><text x="371" y="70">Docker Build</text>
    <rect x="120" y="140" width="120" height="48" rx="8" fill="#0b2225"/><text x="154" y="170">Terraform</text>
    <rect x="280" y="140" width="120" height="48" rx="8" fill="#0b2225"/><text x="315" y="170">AWS EKS</text>
    <rect x="440" y="140" width="120" height="48" rx="8" fill="#0b2225"/><text x="462" y="170">CloudWatch</text>
  </g>
  <g stroke="#00bcd4" stroke-width="3" fill="none">
    <path d="M152,64 L190,64" />
    <path d="M310,64 L350,64" />
    <path d="M180,164 L280,164" />
    <path d="M400,164 L440,164" />
  </g>
</svg>
